# xmcd
#
# Track frame offsets:
#	150
#	13492
#	25006
#	40476
#	57184
#	74060
#	94354
#	107283
#	128734
#	148620
#	160593
#
# Disc length: 2278 seconds
#
# Revision: 1
# Processed by: cddbd v1.4PL0 Copyright (c) Steve Scherf et al.
# Submitted via: audiograbber 1.80
#
DISCID=9608e40b
DTITLE=subterranean - seeking images...
DYEAR=1900
DGENRE=
TTITLE0=it´s not right
TTITLE1=picture of you
TTITLE2=once more
TTITLE3=alles nur ein spiel
TTITLE4=true to myself
TTITLE5=will you realize
TTITLE6=boys don´t cry
TTITLE7=newborn life
TTITLE8=leave you
TTITLE9=annoying
TTITLE10=turn around
EXTD=
EXTT0=
EXTT1=
EXTT2=
EXTT3=
EXTT4=
EXTT5=
EXTT6=
EXTT7=
EXTT8=
EXTT9=
EXTT10=
PLAYORDER=
